<svg width="45" height="45" viewBox="0 0 45 45" fill="none" xmlns="http://www.w3.org/2000/svg">
<path d="M3.75 15.6375V29.3625C3.75 32.175 6.80624 33.9375 9.24374 32.5313L15.1875 29.1188L21.1312 25.6875C21.5062 25.4625 21.8063 25.2188 22.05 24.9188V20.1188C21.8063 19.8188 21.5062 19.575 21.1312 19.35L15.1875 15.9187L9.24374 12.5063C6.80624 11.0625 3.75 12.825 3.75 15.6375Z" stroke="#292D32" stroke-width="1.5" stroke-linecap="round" stroke-linejoin="round"/>
<path d="M22.05 15.6375V29.3625C22.05 32.175 25.1063 33.9375 27.5438 32.5313L33.4875 29.1188L39.4313 25.6875C41.8688 24.2813 41.8688 20.775 39.4313 19.35L33.4875 15.9187L27.5438 12.5063C25.1063 11.0625 22.05 12.825 22.05 15.6375Z" stroke="#292D32" stroke-width="1.5" stroke-linecap="round" stroke-linejoin="round"/>
</svg>
