<svg width="45" height="45" viewBox="0 0 45 45" fill="none" xmlns="http://www.w3.org/2000/svg">
<path d="M41.25 15.6375V29.3625C41.25 32.175 38.1938 33.9375 35.7563 32.5313L29.8125 29.1188L23.8688 25.6875C23.4938 25.4625 23.1937 25.2188 22.95 24.9188V20.1188C23.1937 19.8188 23.4938 19.575 23.8688 19.35L29.8125 15.9187L35.7563 12.5063C38.1938 11.0625 41.25 12.825 41.25 15.6375Z" stroke="#292D32" stroke-width="1.5" stroke-linecap="round" stroke-linejoin="round"/>
<path d="M22.95 15.6375V29.3625C22.95 32.175 19.8937 33.9375 17.4562 32.5313L11.5125 29.1188L5.56872 25.6875C3.13122 24.2813 3.13122 20.775 5.56872 19.35L11.5125 15.9187L17.4562 12.5063C19.8937 11.0625 22.95 12.825 22.95 15.6375Z" stroke="#292D32" stroke-width="1.5" stroke-linecap="round" stroke-linejoin="round"/>
</svg>
